<?xml version="1.0" encoding="UTF-8"?>
<svg id="Livello_1" xmlns="http://www.w3.org/2000/svg" version="1.1" viewBox="0 0 1920 1080">
  <!-- Generator: Adobe Illustrator 30.0.0, SVG Export Plug-In . SVG Version: 2.1.1 Build 123)  -->
  <defs>
    <style>
      .st0 {
        fill: #d41317;
      }

      .st1 {
        fill: #1d1d1b;
      }

      .st2 {
        fill: #fff;
      }

      .st3 {
        fill: #ffec00;
      }
    </style>
  </defs>
  <g>
    <path class="st1" d="M842.3,569.7l3.3,14.5,3.9-14.5h2.6l3.9,14.5,3.3-14.5h2.6l-4.6,17.8h-2.5l-4-14.8-4,14.8h-2.5l-4.6-17.8h2.6Z"/>
    <path class="st1" d="M881.6,569.7h12.6v2.2h-10.3v5.4h9.6v2.1h-9.6v6h10.5v2.1h-12.8v-17.8Z"/>
    <path class="st1" d="M914.8,569.7h2.4v15.7h8.7v2.1h-11.1v-17.8Z"/>
    <path class="st1" d="M944.7,569.7h2.4v15.7h8.7v2.1h-11.1v-17.8Z"/>
    <path class="st1" d="M974.6,569.7h2.8l8.7,14.4v-14.4h2.3v17.8h-2.6l-8.8-14.4v14.4h-2.3v-17.8Z"/>
    <path class="st1" d="M1009.6,569.7h12.6v2.2h-10.3v5.4h9.6v2.1h-9.6v6h10.5v2.1h-12.8v-17.8Z"/>
    <path class="st1" d="M1044.4,581.8c0,1,.3,1.8.7,2.5.8,1.2,2.1,1.8,4,1.8s1.6-.1,2.3-.4c1.4-.5,2-1.4,2-2.7s-.3-1.7-.9-2.1c-.6-.4-1.5-.8-2.7-1.1l-2.3-.5c-1.5-.4-2.6-.7-3.2-1.2-1.1-.7-1.6-1.9-1.6-3.3s.5-2.9,1.6-3.9c1.1-1,2.5-1.5,4.5-1.5s3.3.5,4.5,1.4c1.2.9,1.9,2.3,1.9,4.3h-2.2c-.1-1-.4-1.7-.7-2.2-.7-.9-1.9-1.4-3.5-1.4s-2.3.3-2.9.9c-.6.6-.9,1.3-.9,2.1s.3,1.5,1,1.9c.5.3,1.5.6,3.1,1l2.4.6c1.1.3,2,.7,2.6,1.1,1.1.8,1.6,2,1.6,3.6s-.7,3.4-2.1,4.2c-1.4.9-3,1.3-4.8,1.3s-3.8-.6-5-1.7c-1.2-1.1-1.8-2.7-1.8-4.6h2.2Z"/>
    <path class="st1" d="M1077.9,581.8c0,1,.3,1.8.7,2.5.8,1.2,2.1,1.8,4,1.8s1.6-.1,2.3-.4c1.4-.5,2-1.4,2-2.7s-.3-1.7-.9-2.1c-.6-.4-1.5-.8-2.7-1.1l-2.3-.5c-1.5-.4-2.6-.7-3.2-1.2-1.1-.7-1.6-1.9-1.6-3.3s.5-2.9,1.6-3.9c1.1-1,2.5-1.5,4.5-1.5s3.3.5,4.5,1.4c1.2.9,1.9,2.3,1.9,4.3h-2.2c-.1-1-.4-1.7-.7-2.2-.7-.9-1.9-1.4-3.5-1.4s-2.3.3-2.9.9c-.6.6-.9,1.3-.9,2.1s.3,1.5,1,1.9c.5.3,1.5.6,3.1,1l2.4.6c1.1.3,2,.7,2.6,1.1,1.1.8,1.6,2,1.6,3.6s-.7,3.4-2.1,4.2c-1.4.9-3,1.3-4.8,1.3s-3.8-.6-5-1.7c-1.2-1.1-1.8-2.7-1.8-4.6h2.2Z"/>
    <path class="st1" d="M1135.5,575.5c-.2-.6-.4-1.2-.4-1.7,0-1.1.4-2.1,1.1-2.9.8-.8,1.8-1.1,3-1.1s2.1.4,2.8,1.1c.7.7,1,1.5,1,2.5s-.4,2.1-1.1,3c-.4.5-1.1,1.1-2.1,1.7l3.2,3.9c.2-.6.4-1.1.4-1.5,0-.3.2-.8.3-1.3h2c-.1,1.1-.4,2.2-.8,3.3-.4,1-.6,1.5-.6,1.3l3.1,3.9h-2.7l-1.6-2c-.6.7-1.2,1.2-1.8,1.6-.9.6-2,.9-3.2.9-1.8,0-3.1-.5-3.9-1.5-.8-1-1.2-2.1-1.2-3.4s.4-2.5,1.2-3.4c.5-.6,1.4-1.2,2.7-2.1-.7-.9-1.2-1.6-1.5-2.2ZM1140.7,585.4c.6-.4,1.1-.9,1.5-1.4l-3.9-4.9c-1.1.8-1.8,1.3-2.2,1.7-.5.6-.8,1.3-.8,2.2s.3,1.7,1,2.2c.7.5,1.4.8,2.2.8s1.6-.2,2.3-.6ZM1140.5,575.3c.5-.5.7-1.2.7-1.8s-.2-1-.5-1.4c-.3-.4-.8-.6-1.4-.6-.9,0-1.5.3-1.8.9-.2.3-.3.6-.3,1s.1,1,.4,1.4c.3.5.7,1,1.3,1.8.7-.5,1.3-1,1.5-1.3Z"/>
    <path class="st1" d="M1192.9,581.8c0,1,.3,1.8.7,2.5.8,1.2,2.1,1.8,4,1.8s1.6-.1,2.3-.4c1.4-.5,2-1.4,2-2.7s-.3-1.7-.9-2.1c-.6-.4-1.5-.8-2.7-1.1l-2.3-.5c-1.5-.4-2.6-.7-3.2-1.2-1.1-.7-1.6-1.9-1.6-3.3s.5-2.9,1.6-3.9c1.1-1,2.5-1.5,4.5-1.5s3.3.5,4.5,1.4c1.2.9,1.9,2.3,1.9,4.3h-2.2c-.1-1-.4-1.7-.7-2.2-.7-.9-1.9-1.4-3.5-1.4s-2.3.3-2.9.9c-.6.6-.9,1.3-.9,2.1s.3,1.5,1,1.9c.5.3,1.5.6,3.1,1l2.4.6c1.1.3,2,.7,2.6,1.1,1.1.8,1.6,2,1.6,3.6s-.7,3.4-2.1,4.2c-1.4.9-3,1.3-4.8,1.3s-3.8-.6-5-1.7c-1.2-1.1-1.8-2.7-1.8-4.6h2.2Z"/>
    <path class="st1" d="M1217.1,569.7h7.8c1.5,0,2.8.4,3.7,1.3.9.9,1.4,2.2,1.4,3.8s-.4,2.6-1.3,3.6c-.8,1-2.1,1.5-3.9,1.5h-5.4v7.5h-2.4v-17.8ZM1226.2,572.2c-.5-.3-1.2-.4-2.1-.4h-4.7v6.2h4.7c1.1,0,1.9-.2,2.6-.7.7-.5,1-1.3,1-2.4s-.5-2.2-1.4-2.7Z"/>
    <path class="st1" d="M1245.6,569.7h2.7l6.3,17.8h-2.6l-1.8-5.3h-6.8l-1.9,5.3h-2.4l6.6-17.8ZM1249.6,580.3l-2.7-7.9-2.8,7.9h5.5Z"/>
  </g>
  <g>
    <g>
      <path class="st1" d="M1303.6,572.5c1.4-1.4,3.2-2.2,5.4-2.2s5,1,6.4,2.9c.7,1.1,1.1,2.2,1.2,3.3h-3.7c-.2-.8-.5-1.5-.9-1.9-.7-.8-1.6-1.1-2.9-1.1s-2.3.5-3.1,1.6c-.8,1.1-1.1,2.6-1.1,4.6s.4,3.4,1.2,4.4c.8,1,1.8,1.5,3,1.5s2.2-.4,2.9-1.3c.4-.4.7-1.1.9-2h3.6c-.3,1.9-1.1,3.5-2.4,4.7-1.3,1.2-2.9,1.8-5,1.8s-4.4-.8-5.9-2.4c-1.4-1.6-2.1-3.8-2.1-6.7s.8-5.4,2.4-7.1Z"/>
      <path class="st1" d="M1309.2,589.3c-2.7,0-4.8-.9-6.3-2.6-1.5-1.7-2.3-4.1-2.3-7.1s.9-5.7,2.6-7.5h0c1.5-1.5,3.5-2.3,5.8-2.3s5.4,1.1,6.9,3.1c.8,1.2,1.2,2.4,1.3,3.6v.6s-4.7,0-4.7,0v-.4c-.3-.8-.6-1.3-.9-1.7-.5-.6-1.3-.9-2.5-.9s-2,.4-2.6,1.4c-.7,1-1,2.4-1,4.2s.4,3.2,1.1,4c.7.8,1.5,1.3,2.6,1.3s1.9-.3,2.4-1c.3-.4.6-1,.8-1.8v-.4h4.9v.7c-.4,2-1.3,3.7-2.7,5-1.4,1.3-3.2,1.9-5.3,1.9ZM1309,570.9c-2,0-3.7.7-5,2h0c-1.5,1.5-2.3,3.8-2.3,6.7s.7,4.8,2,6.3c1.3,1.5,3.1,2.2,5.4,2.2s3.4-.5,4.6-1.6c1-1,1.7-2.2,2.1-3.7h-2.5c-.2.8-.5,1.4-.9,1.8-.8,1-1.9,1.5-3.3,1.5s-2.6-.6-3.5-1.7c-.9-1.1-1.3-2.7-1.3-4.8s.4-3.7,1.2-4.9c.9-1.2,2.1-1.9,3.6-1.9s2.6.5,3.3,1.3c.4.4.6,1,.9,1.7h2.6c-.1-.8-.5-1.6-1-2.4-1.2-1.8-3.2-2.6-5.9-2.6Z"/>
    </g>
    <g>
      <path class="st1" d="M1330,570.7h3.7v14.4h8.7v3.1h-12.4v-17.5Z"/>
      <path class="st1" d="M1342.9,588.8h-13.5v-18.7h4.8v14.4h8.7v4.3ZM1330.6,587.6h11.2v-2h-8.7v-14.4h-2.5v16.3Z"/>
    </g>
    <g>
      <path class="st1" d="M1354.9,570.7h3.7v10.7c0,1.2.1,2.1.4,2.6.4,1,1.4,1.5,2.9,1.5s2.4-.5,2.9-1.5c.3-.6.4-1.4.4-2.6v-10.7h3.7v10.8c0,1.9-.3,3.3-.9,4.3-1.1,1.9-3.1,2.8-6.1,2.8s-5.1-.9-6.2-2.8c-.6-1-.9-2.5-.9-4.3v-10.8Z"/>
      <path class="st1" d="M1361.9,589.2c-3.2,0-5.5-1.1-6.7-3.1-.6-1.1-.9-2.7-.9-4.6v-11.3h4.9v11.3c0,1.4.2,2,.4,2.4.4.8,1.1,1.2,2.4,1.2s2-.4,2.3-1.1c.2-.3.4-1,.4-2.4v-11.3h4.9v11.3c0,1.9-.3,3.5-.9,4.6-1.2,2.1-3.4,3.1-6.7,3.1ZM1355.5,571.3v10.2c0,1.8.3,3.1.8,4.1,1,1.7,2.8,2.6,5.7,2.6s4.7-.8,5.6-2.6c.5-.9.8-2.3.8-4.1v-10.2h-2.6v10.2c0,1.3-.2,2.3-.5,2.9-.5,1.2-1.7,1.8-3.4,1.8s-2.9-.6-3.4-1.8c-.3-.6-.5-1.6-.5-2.9v-10.2h-2.6Z"/>
    </g>
    <g>
      <path class="st1" d="M1396,572.6c.5.7.8,1.6.8,2.7s-.3,1.9-.8,2.6c-.3.4-.7.7-1.3,1,.9.3,1.6.8,2,1.5.5.7.7,1.6.7,2.6s-.3,2-.8,2.8c-.3.5-.7,1-1.2,1.4-.6.4-1.2.7-2,.9-.8.2-1.6.2-2.5.2h-7.9v-17.5h8.5c2.1,0,3.6.7,4.5,1.9ZM1386.5,573.7v3.9h4.3c.8,0,1.4-.1,1.9-.4.5-.3.7-.8.7-1.5s-.3-1.4-.9-1.6c-.5-.2-1.2-.3-2.1-.3h-3.8ZM1386.5,580.5v4.7h4.2c.8,0,1.3-.1,1.8-.3.8-.4,1.2-1.1,1.2-2.2s-.4-1.5-1.1-1.9c-.4-.2-1-.3-1.7-.3h-4.3Z"/>
      <path class="st1" d="M1390.9,588.8h-8.5v-18.7h9c2.3,0,4,.7,5,2.1h0c.6.8.9,1.9.9,3s-.3,2.2-.9,2.9c-.2.2-.4.4-.6.6.5.3,1,.8,1.3,1.3.5.8.8,1.8.8,2.9s-.3,2.2-.9,3.1c-.4.6-.8,1.1-1.4,1.5-.6.5-1.4.8-2.2,1-.8.2-1.7.2-2.6.2ZM1383.6,587.6h7.3c.8,0,1.6,0,2.4-.2.7-.1,1.3-.4,1.7-.8.4-.3.8-.7,1.1-1.2.5-.7.7-1.6.7-2.5s-.2-1.6-.6-2.2c-.4-.6-1-1-1.7-1.3l-1.3-.5,1.2-.6c.5-.3.9-.5,1.2-.9.5-.5.7-1.3.7-2.2s-.2-1.7-.7-2.3c-.8-1.1-2.1-1.6-4.1-1.6h-7.9v16.3ZM1390.7,585.7h-4.8v-5.8h4.9c.8,0,1.5.1,2,.3.7.3,1.5,1,1.5,2.4s-.8,2.4-1.5,2.7c-.5.2-1.2.4-2,.4ZM1387.1,584.6h3.7c.7,0,1.2,0,1.5-.2.4-.2.8-.5.8-1.7s-.2-1.1-.8-1.3c-.3-.2-.8-.2-1.5-.2h-3.7v3.5ZM1390.7,578.2h-4.8v-5h4.4c.9,0,1.7.1,2.3.3.6.3,1.3.8,1.3,2.2s-.5,1.8-1,2c-.6.3-1.3.5-2.2.5ZM1387.1,577h3.7c.6,0,1.2-.1,1.5-.3.2-.1.4-.3.4-1s-.3-1-.6-1.1c-.4-.1-1.1-.2-1.8-.2h-3.2v2.7Z"/>
    </g>
    <g>
      <path class="st1" d="M1413.6,582.8c.1.8.3,1.4.7,1.8.6.7,1.6,1.1,3.1,1.1s1.6,0,2.1-.3c1-.4,1.6-1,1.6-2s-.3-1-.8-1.3c-.5-.3-1.3-.6-2.4-.8l-1.9-.4c-1.9-.4-3.1-.9-3.8-1.3-1.2-.8-1.8-2.1-1.8-3.8s.6-2.9,1.7-3.9c1.2-1,2.8-1.6,5.1-1.6s3.5.5,4.8,1.5c1.3,1,2,2.4,2.1,4.3h-3.5c0-1.1-.5-1.8-1.4-2.2-.6-.3-1.3-.4-2.2-.4s-1.7.2-2.3.6c-.6.4-.9.9-.9,1.6s.3,1.1.9,1.4c.4.2,1.1.4,2.3.7l3.1.7c1.3.3,2.4.7,3,1.3,1,.8,1.6,2,1.6,3.6s-.6,2.9-1.9,4c-1.2,1.1-3,1.6-5.2,1.6s-4.1-.5-5.4-1.6c-1.3-1-2-2.5-2-4.3h3.5Z"/>
      <path class="st1" d="M1417.6,589.2c-2.4,0-4.4-.6-5.8-1.7-1.5-1.2-2.2-2.7-2.2-4.7v-.6h4.6v.5c.2.7.3,1.2.6,1.5.5.6,1.4.9,2.7.9s1.5,0,2-.3c.8-.3,1.2-.7,1.2-1.5s-.2-.6-.5-.8c-.4-.3-1.2-.5-2.2-.7l-1.9-.4c-2-.4-3.3-.9-4-1.4-1.3-.9-2-2.4-2-4.3s.6-3.2,1.9-4.3c1.3-1.1,3.1-1.7,5.5-1.7s3.7.5,5.1,1.6c1.5,1.1,2.2,2.7,2.3,4.7v.6s-4.6,0-4.6,0v-.5c0-.9-.4-1.4-1.1-1.8-.5-.2-1.1-.4-1.9-.4s-1.5.2-2,.5c-.4.3-.6.6-.6,1.1s.2.7.6.9c.2.1.8.3,2.2.7l3.1.7c1.4.3,2.5.8,3.3,1.4,1.2.9,1.8,2.3,1.8,4s-.7,3.3-2.1,4.4c-1.3,1.1-3.2,1.7-5.6,1.7ZM1410.7,583.4c.1,1.4.7,2.4,1.7,3.3,1.2,1,2.9,1.4,5.1,1.4s3.7-.5,4.9-1.4c1.1-.9,1.7-2.1,1.7-3.5s-.4-2.4-1.3-3.1c-.6-.5-1.5-.9-2.8-1.2l-3.1-.7c-1.3-.3-2.1-.5-2.5-.8-.7-.4-1.1-1.1-1.1-1.9s.4-1.6,1.1-2.1c.7-.4,1.6-.7,2.6-.7s1.8.2,2.4.5c.9.5,1.5,1.2,1.7,2.2h2.4c-.2-1.4-.8-2.4-1.8-3.2-1.2-.9-2.7-1.4-4.4-1.4s-3.7.5-4.7,1.4c-1,.9-1.5,2.1-1.5,3.5s.5,2.6,1.5,3.3c.6.4,1.9.9,3.6,1.3l1.9.4c1.2.3,2,.5,2.6.9.7.4,1,1.1,1,1.8s-.3,2-2,2.6c-.6.2-1.4.3-2.3.3-1.6,0-2.8-.4-3.6-1.3-.3-.4-.6-.9-.7-1.6h-2.4Z"/>
    </g>
    <g>
      <path class="st1" d="M1268.6,612.6c1.5-1.5,3.4-2.3,5.8-2.3s5.4,1,6.9,3.1c.8,1.2,1.2,2.3,1.3,3.5h-3.9c-.2-.9-.6-1.6-1-2-.7-.8-1.7-1.2-3.1-1.2s-2.5.6-3.3,1.7c-.8,1.2-1.2,2.8-1.2,4.9s.4,3.7,1.3,4.7c.9,1,1.9,1.6,3.3,1.6s2.4-.5,3.1-1.4c.4-.5.7-1.2,1-2.2h3.9c-.3,2-1.2,3.7-2.6,5-1.4,1.3-3.2,1.9-5.3,1.9s-4.8-.9-6.3-2.6c-1.5-1.7-2.3-4.1-2.3-7.2s.9-5.8,2.6-7.6Z"/>
      <path class="st1" d="M1274.6,630.5c-2.8,0-5.1-.9-6.7-2.8-1.6-1.8-2.4-4.4-2.4-7.6s.9-6.1,2.8-8c1.6-1.7,3.7-2.5,6.2-2.5s5.8,1.1,7.3,3.4c.9,1.3,1.3,2.5,1.4,3.8v.6s-4.9,0-4.9,0v-.4c-.3-.8-.6-1.4-1-1.8-.6-.7-1.5-1-2.7-1s-2.1.5-2.8,1.5c-.7,1-1.1,2.6-1.1,4.6s.4,3.4,1.1,4.4c.7.9,1.7,1.4,2.8,1.4s2-.4,2.6-1.1c.3-.4.6-1.1.9-2v-.4h5.1v.7c-.5,2.2-1.4,4-2.9,5.3-1.5,1.4-3.4,2.1-5.7,2.1ZM1274.4,610.9c-2.2,0-4,.7-5.4,2.1h0c-1.6,1.7-2.4,4.1-2.4,7.2s.7,5.2,2.2,6.8c1.4,1.6,3.4,2.4,5.9,2.4s3.6-.6,4.9-1.8c1.1-1,1.9-2.4,2.3-4h-2.8c-.3.8-.6,1.5-1,2-.8,1-2,1.6-3.5,1.6s-2.7-.6-3.7-1.8c-.9-1.2-1.4-2.9-1.4-5.1s.4-4,1.3-5.2c.9-1.3,2.2-2,3.8-2s2.7.5,3.6,1.4c.4.5.7,1.1,1,1.8h2.9c-.1-.9-.5-1.7-1.1-2.6-1.3-1.9-3.4-2.9-6.4-2.9Z"/>
    </g>
  </g>
  <g>
    <path class="st1" d="M1196.2,623.7c.1.8.4,1.5.7,1.9.6.8,1.7,1.1,3.3,1.1s1.7-.1,2.3-.3c1.1-.4,1.7-1.1,1.7-2.1s-.3-1.1-.8-1.4c-.5-.3-1.4-.6-2.6-.9l-2-.4c-2-.4-3.3-.9-4.1-1.4-1.2-.9-1.9-2.2-1.9-4s.6-3,1.8-4.1c1.2-1.1,3-1.6,5.4-1.6s3.7.5,5.1,1.5c1.4,1,2.1,2.5,2.2,4.5h-3.7c0-1.1-.6-1.9-1.5-2.4-.6-.3-1.4-.5-2.3-.5s-1.8.2-2.4.6c-.6.4-.9,1-.9,1.7s.3,1.2.9,1.5c.4.2,1.2.5,2.5.8l3.2.8c1.4.3,2.5.8,3.2,1.3,1.1.9,1.7,2.1,1.7,3.8s-.7,3.1-2,4.2c-1.3,1.1-3.2,1.7-5.5,1.7s-4.4-.6-5.8-1.7c-1.4-1.1-2.1-2.6-2.1-4.5h3.7Z"/>
    <path class="st1" d="M1200.3,630.5c-2.6,0-4.6-.6-6.1-1.8-1.5-1.2-2.3-2.9-2.3-5v-.6h4.8v.5c.2.7.4,1.3.6,1.6.5.6,1.5.9,2.8.9s1.6,0,2.1-.3c.9-.3,1.3-.8,1.3-1.6s-.2-.7-.5-.9c-.5-.3-1.3-.6-2.4-.8l-2-.4c-2.1-.5-3.5-.9-4.3-1.5-1.4-1-2.1-2.5-2.1-4.5s.7-3.4,2-4.6c1.3-1.2,3.3-1.8,5.8-1.8s3.9.6,5.4,1.7c1.5,1.1,2.4,2.8,2.4,4.9v.6s-4.8,0-4.8,0v-.5c0-.9-.5-1.5-1.2-1.9-.5-.3-1.2-.4-2-.4s-1.6.2-2.1.5c-.4.3-.7.7-.7,1.2s.2.7.6,1c.2.1.8.4,2.3.7l3.2.8c1.5.4,2.6.8,3.4,1.5,1.2,1,1.9,2.4,1.9,4.2s-.7,3.4-2.2,4.7c-1.4,1.2-3.4,1.8-5.9,1.8ZM1193.1,624.3c.1,1.5.7,2.6,1.8,3.5,1.3,1,3.1,1.5,5.4,1.5s4-.5,5.2-1.5c1.2-1,1.8-2.2,1.8-3.8s-.5-2.6-1.4-3.3c-.6-.5-1.6-.9-3-1.2l-3.2-.8c-1.3-.3-2.2-.6-2.6-.8-.8-.4-1.2-1.1-1.2-2s.4-1.7,1.2-2.2c.7-.5,1.6-.7,2.8-.7s1.9.2,2.6.5c.9.5,1.5,1.3,1.7,2.3h2.6c-.2-1.5-.8-2.6-1.9-3.5-1.3-1-2.9-1.4-4.7-1.4s-3.9.5-5,1.5c-1.1,1-1.6,2.2-1.6,3.7s.5,2.8,1.6,3.5c.7.5,2,.9,3.9,1.3l2,.4c1.2.3,2.1.6,2.7.9.7.4,1.1,1.1,1.1,1.9s-.4,2.1-2,2.7c-.6.2-1.5.3-2.5.3-1.7,0-3-.5-3.7-1.3-.4-.4-.6-1-.7-1.7h-2.6Z"/>
  </g>
  <path class="st0" d="M592.9,449.4l-2.4,34.6h-4.8l-5.9-17.3-62.2,31.6,59,29.8v-9.8c-.1,0-3.2-2.5-6.8-4-4.2-1.8-7.6-2.6-7.6-2.6v-4.7s43.2,0,43.2,0v6.2s-5,.7-6.5,1.5c-1.6.8-5.6,4.2-5.6,4.2l-.3,29.8h-14.1l-85.3-44.5v-12.5l90.7-42.3h8.6Z"/>
  <path class="st3" d="M689.7,453.1v1.1s-3.4,1.1-4.4,1.5c-1.2.4-4.5,1.9-4.5,1.9l-28.3,42v40.4s5.6,4.2,5.6,4.2v.6s-17.2,0-17.2,0v-1.2s2.5-.9,3.3-1.4c.7-.4,2.9-1.7,2.9-1.7v-39.8s-24.6-41.5-24.6-41.5l-1.4-2s-2.3-1.2-3-1.5c-.9-.4-3.5-1.3-3.5-1.3v-1.4h11.3l23.5,37.5v1.7l-2,1.7v1l2.3,2h1.1s25.2-38.7,25.2-38.7v-1.4s-5.4-3.1-5.4-3.1v-.8h19.2Z"/>
  <polygon class="st2" points="588.3 453.7 587.8 468.9 583.8 460.9 510.1 498.2 584.1 537.1 584.1 516.1 576.2 511.5 576.2 510.3 596.6 510.1 596.6 511.2 589.3 516.3 589.4 544.1 501 498 501 497 588.3 453.7"/>
  <path class="st0" d="M701.3,449.4v4.2s-13.4,4.5-14.9,5.4c-1.8,1.1-2.9,2.5-2.9,2.5l-27.1,39.6v37.3s16.4,7.1,16.4,7.1v3.4s-51.6,0-51.6,0c0,0,0-3.7,0-3.6s18-7.7,18.1-7.6c0,0,0-36.4,0-36.4l-22.3-36.2-1.7-2.8s-.3-.4-.8-.8c-.3-.2-.8-.5-.9-.7-.3-.2-1.4-.8-1.4-.8l-16.4-6.8v-3.6h32.1l22.4,34.7,16-24.6v-.9l-7.6-5.3v-3.9s42.6,0,42.6,0Z"/>
  <path class="st2" d="M689.7,453.1v1.1s-3.4,1.1-4.4,1.5c-1.2.4-4.5,1.9-4.5,1.9l-28.3,42v40.4s5.6,4.2,5.6,4.2v.6s-17.2,0-17.2,0v-1.2s2.5-.9,3.3-1.4c.7-.4,2.9-1.7,2.9-1.7v-39.8s-24.6-41.5-24.6-41.5c0,0-.9-1.2-1.2-1.6,0,0-.5-.5-.8-.6-.7-.4-2-1-2.5-1.2-.9-.4-3.5-1.3-3.5-1.3v-1.4h11.3l23.5,37.5v1.7l-2,1.7v1l2.3,2h1.1s25.2-38.7,25.2-38.7v-1.4s-5.4-3.1-5.4-3.1v-.8h19.2Z"/>
  <polyline class="st0" points="716.3 449.4 756 519.2 796.8 449.4 809.8 449.4 816.5 538.3 830.6 545.2 830.6 548.8 784.1 548.8 784.1 545.1 799.8 538.6 794.1 487.3 758.4 548.8 751.9 548.8 715.2 486.1 711.2 537.5 726.2 545.1 726.2 548.8 680.7 548.8 680.7 545.2 695.7 537.5 704.2 449.4"/>
  <polyline class="st0" points="1312.1 449.5 1351.8 519.3 1392.6 449.5 1405.6 449.5 1412.4 538.4 1426.4 545.3 1426.4 548.9 1379.9 548.9 1379.9 545.2 1395.7 538.7 1389.9 487.4 1354.2 548.9 1347.7 548.9 1311 486.2 1307.1 537.6 1322 545.2 1322 548.9 1276.6 548.9 1276.6 545.3 1291.5 537.6 1300 449.5"/>
  <polygon class="st2" points="801.9 454.2 806.1 454.2 813.4 541.7 817.9 544.3 817.9 545.5 802.4 545.5 802.4 544.6 807.8 540.6 801.9 454.2"/>
  <polygon class="st2" points="798.2 465.1 798.2 473.5 756.1 544.3 754.2 544.3 754.2 543.4 756.4 538.9 710.9 454.5 712 453.9 713.5 453.9 756.7 528.7 756.7 530.5 755.3 532.1 757.7 535.6 797.3 466.3 798.2 465.1"/>
  <polygon class="st2" points="709.8 468.4 711.4 468.4 712.6 470.9 707.6 541.2 712.3 544.6 712.3 545.4 699.1 545.4 699.1 544.9 704.2 541.1 709.8 468.4"/>
  <polygon class="st2" points="1397.7 454.3 1401.9 454.3 1409.2 541.8 1413.7 544.4 1413.7 545.6 1398.2 545.6 1398.2 544.7 1403.6 540.7 1397.7 454.3"/>
  <polygon class="st2" points="1394 465.2 1394 473.6 1351.9 544.4 1350 544.4 1350 543.5 1352.2 539.1 1306.7 454.6 1307.8 454 1309.3 454 1352.5 528.8 1352.5 530.6 1351.1 532.2 1353.5 535.7 1393.1 466.5 1394 465.2"/>
  <polygon class="st2" points="1305.7 468.5 1307.2 468.5 1308.5 471 1303.4 541.3 1308.1 544.7 1308.1 545.5 1294.9 545.5 1294.9 545 1300 541.2 1305.7 468.5"/>
  <polygon class="st0" points="966.7 449.4 966.7 454 952.9 461.3 952.3 549.1 938.8 549.1 870.4 479.9 870.2 538.4 885.1 546.3 885.1 549.1 838.3 549 838.3 544.9 853.2 539.2 853.8 449.4 866.2 449.4 936.2 518.9 936.2 461 920.7 453.6 920.7 449.4 966.7 449.4"/>
  <path class="st2" d="M943.3,546v-3.7l-81.3-87.3s0-1.2,0-1.1c0,0,4.2,0,4.2,0l78,82.6.5-77.6-6.5-3.7v-.8h16.6v.9l-6.1,3.7-.9,87"/>
  <polygon class="st2" points="865.6 469.8 865.1 540.2 873.5 545.2 873.5 546 854.1 546 854.1 545.7 860.9 541.2 861.7 465 865.6 469.8"/>
  <path class="st0" d="M1054.8,542.1l-3.1-2.3-2-4.8-34.1-85.6h-11.3s-36.1,87.5-36.1,87.5c0,0-1,1.4-1.3,1.8-.4.4-1.8,1.6-1.8,1.6l-10.5,5.4v3.4h40.4s0-3.1,0-3.1l-11.3-6.2v-.8l10.8-26.3h28.2l10.2,25.4v1.9s-11.3,6-11.3,6v3.1h43.2v-2.6l-9.9-4.5ZM1016.1,500.6h-14.8v-1.3l6.8-17.6,8,17.6v1.3Z"/>
  <path class="st2" d="M1050.5,543.2c-.6-.5-2.5-2.3-2.5-2.3l-34.6-86.1h-4.8v1.1l1.1.9v.9s-36.3,83.7-36.3,83.7c0,0-.2.4-.3.5,0,0-.3.2-.3.2l-4.7,3.1v.5h15.8v-.7l-4.8-4.4v-1.4l13.3-30h37.2c0,0,13.8,32,13.8,32v.8s-6.1,3.7-6.1,3.7v.5s16.7,0,16.7,0v-.8s-2.6-1.6-3.5-2.3ZM994.5,503.7l16.1-39.9,16.4,39.9h-32.5Z"/>
  <polygon class="st0" points="1118.6 449.4 1118.6 480.6 1109.2 468.6 1079.4 485.9 1148 509.8 1085 549.1 1067.6 549.1 1067.6 520.3 1078 534.4 1079.9 534.4 1114.4 515.8 1114.4 514.9 1044.7 490.3 1110.1 449.4 1118.6 449.4"/>
  <polygon class="st2" points="1114.1 455.7 1114.1 462.4 1112.4 461.3 1110.7 461.3 1070.3 486.9 1070.3 487.8 1138.7 511 1138.7 511.3 1082.8 545.9 1077.4 545.9 1077.4 545.1 1129.4 511.9 1059.1 488.5 1113.2 455.7 1114.1 455.7"/>
  <path class="st0" d="M1183.2,449.4v4.3l-12.7,5.1s-1.2.7-1.5,1c-.1.1-.4.4-.5.7-.2.5-.2,1-.2,1v77.1s14.9,7.4,14.9,7.4v3.1h-46.8v-4.3l14.1-5.5.9-.9.2-76.8-14.9-8.2v-3.9h46.5Z"/>
  <polygon class="st2" points="1169.4 455.1 1164.9 459.5 1164.4 541.7 1170.5 545.2 1170.5 546 1153.6 546 1153.6 545.4 1160.1 541.7 1160.3 459.9 1154.8 455.9 1154.7 455.1 1169.4 455.1"/>
  <path class="st0" d="M1230.7,449.4v4.5l-11.2,4.6s-.2.2-.2.3c0,0,0,.3,0,.3l21.4,57.8,24.1-56.2v-.6l-13.2-6.8v-3.9h42v4.5l-13.3,8.4-35,86.7h-12.4l-31.3-83.8-2-4.3s-3.7-4.4-5.3-5.3c-1.6-.9-7.7-2.2-7.7-2.2v-4h44Z"/>
  <path class="st2" d="M1283.2,456v1.1l-5.8,3.6-34.8,85.6h-4.4l1.9-3.3-31-81.9-1.7-1.7s-4.6-1.7-5.4-3.1c0-.1,0-.6,0-.6h15.3v.5s-2.4,1.5-2.4,1.5c0,0-.8,1-.8,1.4,0,.5.1,1.9.1,1.9l26.8,71.2v.8s-.8,2.3-.8,2.3l.8,3.6h.7s31.4-77.4,31.4-77.4v-1.4s-5.9-3.7-5.9-3.7v-.5h16.1Z"/>
  <g>
    <g>
      <path class="st1" d="M1221.2,629v-18.2h2.4v18.2h-2.4Z"/>
      <rect class="st1" x="1220" y="609.6" width="4.8" height="20.7"/>
    </g>
    <g>
      <path class="st1" d="M1237.9,629v-18.2h2.5l9.6,14.3v-14.3h2.3v18.2h-2.5l-9.6-14.3v14.3h-2.3Z"/>
      <polygon class="st1" points="1253.5 630.3 1249.2 630.3 1241.4 618.7 1241.4 630.3 1236.7 630.3 1236.7 609.6 1241 609.6 1248.8 621.1 1248.8 609.6 1253.5 609.6 1253.5 630.3"/>
    </g>
    <g>
      <path class="st1" d="M1294.9,629v-18.2h13.2v2.2h-10.8v5.6h10.1v2.1h-10.1v6.2h11.2v2.2h-13.6Z"/>
      <polygon class="st1" points="1309.8 630.3 1293.7 630.3 1293.7 609.6 1309.3 609.6 1309.3 614.2 1298.6 614.2 1298.6 617.3 1308.7 617.3 1308.7 621.9 1298.6 621.9 1298.6 625.7 1309.8 625.7 1309.8 630.3"/>
    </g>
    <g>
      <path class="st1" d="M1346.6,629h-2.2v-14.3c-.5.5-1.2,1-2.1,1.5-.9.5-1.7.9-2.4,1.2v-2.2c1.3-.6,2.3-1.3,3.3-2.1s1.6-1.6,2-2.4h1.4v18.3Z"/>
      <path class="st1" d="M1347.9,630.3h-4.7v-13.1c0,0-.2.1-.3.2-.9.5-1.8,1-2.6,1.2l-1.6.6v-4.7l.7-.3c1.1-.5,2.1-1.2,3-1.9.8-.7,1.4-1.4,1.7-2.1l.3-.7h3.4v20.7Z"/>
    </g>
    <g>
      <path class="st1" d="M1362.8,624.8l2.2-.2c.2,1,.5,1.7,1,2.2s1.2.7,2,.7,1.3-.2,1.8-.5c.5-.3.9-.7,1.3-1.3.3-.5.6-1.2.8-2.1s.3-1.8.3-2.7,0-.2,0-.4c-.4.7-1.1,1.3-1.8,1.7-.8.4-1.6.7-2.5.7-1.5,0-2.8-.5-3.8-1.6s-1.6-2.5-1.6-4.3.5-3.3,1.6-4.5c1.1-1.1,2.5-1.7,4.1-1.7s2.3.3,3.3,1c1,.6,1.7,1.5,2.2,2.7.5,1.2.8,2.9.8,5.1s-.3,4.2-.8,5.6c-.5,1.4-1.3,2.4-2.3,3.2-1,.7-2.2,1.1-3.5,1.1s-2.6-.4-3.5-1.2c-.9-.8-1.4-1.9-1.6-3.3ZM1372,616.8c0-1.3-.3-2.3-1-3.1-.7-.8-1.5-1.1-2.5-1.1s-1.9.4-2.6,1.2-1.1,1.9-1.1,3.2.4,2.1,1.1,2.8c.7.7,1.6,1.1,2.6,1.1s1.9-.4,2.6-1.1c.7-.7,1-1.7,1-3Z"/>
      <path class="st1" d="M1367.9,630.6c-1.7,0-3.2-.5-4.3-1.5-1.1-1-1.8-2.4-2-4.1l-.2-1.2,3.5-.3c-.7-.3-1.2-.8-1.8-1.3-1.3-1.3-1.9-3.1-1.9-5.2s.7-4,2-5.3c1.3-1.4,3-2.1,5-2.1s2.7.4,3.9,1.2c1.2.8,2.1,1.9,2.7,3.3.6,1.3.9,3.2.9,5.6s-.3,4.5-.8,6c-.6,1.6-1.5,2.9-2.7,3.7-1.2.9-2.6,1.3-4.2,1.3ZM1366,623.8v.6c.2.7.5,1.2.8,1.5.6.5,1.7.5,2.3,0,.4-.2.6-.5.9-.9.3-.4.5-1,.7-1.7-1.4.7-3.2.8-4.7.4ZM1368.5,613.8c-.7,0-1.2.3-1.7.8-.5.6-.8,1.4-.8,2.3s.2,1.5.7,2c.5.5,1,.7,1.7.7s1.2-.2,1.7-.7c.5-.5.7-1.2.7-2.2s-.2-1.7-.7-2.2c-.5-.5-1-.7-1.6-.7Z"/>
    </g>
    <g>
      <path class="st1" d="M1390.2,619.2c-.9-.3-1.6-.8-2.1-1.5s-.7-1.4-.7-2.3c0-1.3.5-2.4,1.4-3.3s2.2-1.4,3.8-1.4,2.9.5,3.8,1.4c1,.9,1.5,2.1,1.5,3.4s-.2,1.6-.7,2.2c-.4.6-1.1,1.1-2,1.4,1.1.4,2,1,2.6,1.8.6.8.9,1.8.9,2.9s-.6,2.9-1.7,3.9-2.6,1.6-4.4,1.6-3.3-.5-4.4-1.6c-1.1-1.1-1.7-2.4-1.7-4s.3-2.2.9-3c.6-.8,1.5-1.3,2.6-1.6ZM1389,623.8c0,.6.2,1.3.5,1.9.3.6.8,1.1,1.3,1.4.6.3,1.2.5,1.9.5,1.1,0,2-.3,2.6-1s1-1.6,1-2.6-.4-2-1.1-2.7c-.7-.7-1.6-1.1-2.7-1.1s-1.9.3-2.6,1c-.7.7-1,1.6-1,2.6ZM1389.7,615.4c0,.9.3,1.6.8,2.1s1.3.8,2.2.8,1.6-.3,2.1-.8c.6-.5.8-1.2.8-2s-.3-1.5-.9-2.1c-.6-.6-1.3-.8-2.1-.8s-1.6.3-2.1.8-.8,1.2-.8,2Z"/>
      <path class="st1" d="M1392.7,630.6c-2.1,0-3.9-.7-5.2-1.9-1.3-1.3-2-2.9-2-4.9s.4-2.7,1.1-3.7c.3-.4.6-.7,1-1-.2-.2-.4-.4-.5-.6-.6-.8-.9-1.8-.9-3,0-1.7.6-3.1,1.8-4.2,1.2-1.1,2.7-1.7,4.6-1.7s3.5.6,4.7,1.7c1.2,1.2,1.8,2.6,1.8,4.3s-.3,2.1-.9,2.9c-.2.2-.4.5-.6.7.4.3.8.7,1.1,1.1.7,1,1.1,2.2,1.1,3.6s-.7,3.5-2,4.8c-1.3,1.3-3.1,1.9-5.2,1.9ZM1392.6,621.3c-.7,0-1.3.2-1.8.7-.5.5-.7,1-.7,1.8s.1.9.3,1.3c.2.4.5.7.8.9.4.2.9.3,1.3.3.8,0,1.3-.2,1.8-.7.5-.5.7-1,.7-1.8s-.2-1.3-.7-1.8c-.5-.5-1.1-.7-1.8-.7ZM1392.7,613.8c-.5,0-.9.2-1.3.5-.3.3-.5.7-.5,1.1s.2.9.5,1.2c.3.3.7.5,1.3.5s.9-.1,1.3-.5c.3-.3.5-.7.5-1.1s-.2-.9-.5-1.2c-.3-.3-.7-.5-1.3-.5Z"/>
    </g>
    <g>
      <path class="st1" d="M1411.1,613.2v-2.2h11.8v1.7c-1.2,1.2-2.3,2.9-3.5,4.9-1.1,2-2,4.2-2.6,6.3-.4,1.5-.7,3.2-.9,5h-2.3c0-1.4.3-3.2.8-5.2s1.3-4,2.3-5.9c1-1.9,2.1-3.5,3.2-4.8h-8.9Z"/>
      <path class="st1" d="M1417.1,630.3h-4.7v-1.2c0-1.5.3-3.4.9-5.5.6-2.1,1.4-4.2,2.4-6.1.6-1.1,1.2-2.1,1.8-3h-7.7v-4.6h14.2v3.4l-.3.4c-1.1,1.2-2.2,2.7-3.3,4.7-1.1,2-1.9,4-2.5,6.1-.4,1.4-.7,3-.8,4.8v1.1Z"/>
    </g>
  </g>
</svg>